<svg width="64" height="64" viewBox="0 0 64 64" fill="none" xmlns="http://www.w3.org/2000/svg">
<g clip-path="url(#clip0_15_2557)">
<path d="M48 0H16C7.16344 0 0 7.16344 0 16V48C0 56.8366 7.16344 64 16 64H48C56.8366 64 64 56.8366 64 48V16C64 7.16344 56.8366 0 48 0Z" fill="#2D68FF"/>
<path opacity="0.55" d="M45.4764 17.6807H18.5229V45.089C18.5229 47.2537 20.8005 48.6603 22.7361 47.6934L31.9998 43.0607L41.2633 47.6934C43.1989 48.6603 45.4764 47.252 45.4764 45.089V17.6807Z" fill="white"/>
<path d="M44.6342 15.9961C43.984 15.9961 20.0156 15.9961 19.3653 15.9961C17.9705 15.9961 16.8384 17.1281 16.8384 18.523C16.8384 19.9178 17.9705 21.0499 19.3653 21.0499C20.0156 21.0499 43.984 21.0499 44.6342 21.0499C46.0291 21.0499 47.1611 19.9178 47.1611 18.523C47.1611 17.1281 46.0291 15.9961 44.6342 15.9961Z" fill="white"/>
</g>
<defs>
<clipPath id="clip0_15_2557">
<rect width="64" height="64" fill="white"/>
</clipPath>
</defs>
</svg>
