<svg width="65" height="64" viewBox="0 0 65 64" fill="none" xmlns="http://www.w3.org/2000/svg">
<g clip-path="url(#clip0_15_2573)">
<path d="M48.1094 0H16.1094C7.27282 0 0.109375 7.16344 0.109375 16V48C0.109375 56.8366 7.27282 64 16.1094 64H48.1094C56.9459 64 64.1094 56.8366 64.1094 48V16C64.1094 7.16344 56.9459 0 48.1094 0Z" fill="#45BCFF"/>
<path opacity="0.6" d="M28.6379 49.3853C28.3563 49.3853 28.0747 49.354 27.7896 49.281C25.9259 48.8151 24.7959 46.9271 25.2583 45.0635L32.2122 17.2479C32.6782 15.3842 34.5731 14.2577 36.4298 14.7166C38.2934 15.1825 39.4234 17.0705 38.961 18.9342L32.0071 46.7498C31.6107 48.3318 30.1956 49.3853 28.6379 49.3853Z" fill="#FAFBFC"/>
<path d="M43.6038 42.4314C42.7137 42.4314 41.8236 42.0907 41.1456 41.4127C39.7861 40.0532 39.7861 37.8558 41.1456 36.4963L45.6413 32.0006L41.1456 27.5049C39.7861 26.1454 39.7861 23.948 41.1456 22.5885C42.5051 21.229 44.7025 21.229 46.062 22.5885L53.0159 29.5424C54.3754 30.9019 54.3754 33.0993 53.0159 34.4588L46.062 41.4127C45.384 42.0907 44.4939 42.4314 43.6038 42.4314Z" fill="#FAFBFC"/>
<path d="M20.6153 42.4314C19.7252 42.4314 18.8351 42.0907 18.1571 41.4127L11.2032 34.4588C9.84373 33.0993 9.84373 30.9019 11.2032 29.5424L18.1571 22.5885C19.5166 21.229 21.7141 21.229 23.0735 22.5885C24.433 23.948 24.433 26.1454 23.0735 27.5049L18.5778 32.0006L23.0735 36.4963C24.433 37.8558 24.433 40.0532 23.0735 41.4127C22.3955 42.0907 21.5054 42.4314 20.6153 42.4314Z" fill="#FAFBFC"/>
</g>
<defs>
<clipPath id="clip0_15_2573">
<rect width="64" height="64" fill="white" transform="translate(0.109375)"/>
</clipPath>
</defs>
</svg>
