<svg width="24" height="24" viewBox="0 0 24 24" fill="none" xmlns="http://www.w3.org/2000/svg">
<g clip-path="url(#clip0_198_29808)">
<path d="M19.9 3.09144C19.7771 2.5631 19.5479 2.06528 19.2265 1.62827C18.9052 1.19125 18.4982 0.824172 18.0305 0.549353C17.5629 0.274534 17.0441 0.0977172 16.506 0.0296559C15.9678 -0.0384054 15.4214 0.00371109 14.9 0.153444L13.176 0.646444C12.7393 0.771964 12.337 0.995663 12 1.30044C11.663 0.995663 11.2607 0.771964 10.824 0.646444L9.1 0.153444C8.57894 0.00449149 8.03304 -0.0370245 7.49544 0.0314159C6.95784 0.0998563 6.43976 0.276826 5.97263 0.551582C5.50551 0.826339 5.09909 1.19315 4.77804 1.62976C4.45699 2.06636 4.22801 2.56365 4.105 3.09144C2.9548 3.30071 1.91429 3.9064 1.16433 4.80324C0.414377 5.70008 0.00239598 6.83136 0 8.00044L0 15.0004C0.00158786 16.326 0.528882 17.5969 1.46622 18.5342C2.40356 19.4716 3.67441 19.9989 5 20.0004H11V22.0004H8C7.73478 22.0004 7.48043 22.1058 7.29289 22.2933C7.10536 22.4809 7 22.7352 7 23.0004C7 23.2657 7.10536 23.52 7.29289 23.7076C7.48043 23.8951 7.73478 24.0004 8 24.0004H16C16.2652 24.0004 16.5196 23.8951 16.7071 23.7076C16.8946 23.52 17 23.2657 17 23.0004C17 22.7352 16.8946 22.4809 16.7071 22.2933C16.5196 22.1058 16.2652 22.0004 16 22.0004H13V20.0004H19C20.3256 19.9989 21.5964 19.4716 22.5338 18.5342C23.4711 17.5969 23.9984 16.326 24 15.0004V8.00044C23.9978 6.83208 23.5865 5.70137 22.8376 4.80463C22.0886 3.90789 21.0493 3.30175 19.9 3.09144ZM13 3.53144C13.0001 3.31426 13.0709 3.10301 13.2017 2.92963C13.3325 2.75625 13.5162 2.63017 13.725 2.57044L15.45 2.07744C15.7477 1.9923 16.0611 1.97743 16.3655 2.03401C16.6699 2.09059 16.957 2.21707 17.2042 2.40349C17.4514 2.58992 17.652 2.83119 17.7901 3.10831C17.9281 3.38543 18 3.69082 18 4.00044V7.93844C17.9986 8.3724 17.8565 8.7942 17.5951 9.14056C17.3337 9.48692 16.967 9.73917 16.55 9.85944L13 10.8734V3.53144ZM6.8 2.40044C7.04673 2.2147 7.33325 2.08883 7.63695 2.03278C7.94065 1.97672 8.25322 1.99201 8.55 2.07744L10.275 2.57044C10.4838 2.63017 10.6675 2.75625 10.7983 2.92963C10.9291 3.10301 10.9999 3.31426 11 3.53144V10.8734L7.45 9.85944C7.03305 9.73917 6.66634 9.48692 6.4049 9.14056C6.14346 8.7942 6.00139 8.3724 6 7.93844V4.00044C5.99898 3.68978 6.07083 3.3832 6.20976 3.10533C6.3487 2.82745 6.55086 2.58603 6.8 2.40044ZM22 15.0004C22 15.7961 21.6839 16.5592 21.1213 17.1218C20.5587 17.6844 19.7956 18.0004 19 18.0004H5C4.20435 18.0004 3.44129 17.6844 2.87868 17.1218C2.31607 16.5592 2 15.7961 2 15.0004V8.00044C2.00256 7.38218 2.19608 6.77981 2.55409 6.27574C2.91209 5.77168 3.41709 5.39053 4 5.18444V7.93844C4.00245 8.80678 4.28642 9.65091 4.8093 10.3442C5.33218 11.0374 6.06577 11.5425 6.9 11.7834L10.351 12.7704C11.4295 13.0779 12.5725 13.0779 13.651 12.7704L17.102 11.7834C17.9359 11.5421 18.669 11.0369 19.1915 10.3437C19.714 9.65046 19.9977 8.80653 20 7.93844V5.18444C20.5829 5.39053 21.0879 5.77168 21.4459 6.27574C21.8039 6.77981 21.9974 7.38218 22 8.00044V15.0004Z" fill="#28A845"/>
</g>
<defs>
<clipPath id="clip0_198_29808">
<rect width="24" height="24" fill="white"/>
</clipPath>
</defs>
</svg>
