<svg width="60" height="61" viewBox="0 0 60 61" fill="none" xmlns="http://www.w3.org/2000/svg">
<g clip-path="url(#clip0_15_2684)">
<path d="M44 0.399658H16C7.16344 0.399658 0 7.5631 0 16.3997V44.3997C0 53.2362 7.16344 60.3997 16 60.3997H44C52.8366 60.3997 60 53.2362 60 44.3997V16.3997C60 7.5631 52.8366 0.399658 44 0.399658Z" fill="#45BCFF"/>
<path d="M29.9999 29.5296C33.8433 29.5296 36.9589 26.4139 36.9589 22.5706C36.9589 18.7273 33.8433 15.6116 29.9999 15.6116C26.1566 15.6116 23.041 18.7273 23.041 22.5706C23.041 26.4139 26.1566 29.5296 29.9999 29.5296Z" fill="white"/>
<path opacity="0.45" d="M16.9519 33.0091C19.354 33.0091 21.3012 31.0618 21.3012 28.6597C21.3012 26.2576 19.354 24.3103 16.9519 24.3103C14.5498 24.3103 12.6025 26.2576 12.6025 28.6597C12.6025 31.0618 14.5498 33.0091 16.9519 33.0091Z" fill="white"/>
<path opacity="0.45" d="M43.0481 33.0091C45.4502 33.0091 47.3974 31.0618 47.3974 28.6597C47.3974 26.2576 45.4502 24.3103 43.0481 24.3103C40.646 24.3103 38.6987 26.2576 38.6987 28.6597C38.6987 31.0618 40.646 33.0091 43.0481 33.0091Z" fill="white"/>
<path d="M35.2193 45.1872H24.7808C21.898 45.1872 19.5615 42.461 19.5615 39.0981C19.5615 35.7352 21.898 33.009 24.7808 33.009H35.2193C38.102 33.009 40.4385 35.7352 40.4385 39.0981C40.4385 42.461 38.102 45.1872 35.2193 45.1872Z" fill="white"/>
<path opacity="0.45" d="M46.6163 36.4885H13.2497C10.9707 36.4885 9.12305 38.3361 9.12305 40.6151V41.0623C9.12305 43.3396 10.9707 45.1872 13.2497 45.1872H46.6163C48.9685 45.1872 50.877 43.2787 50.877 40.9248V40.7491C50.877 38.397 48.9685 36.4885 46.6163 36.4885Z" fill="white"/>
</g>
<defs>
<clipPath id="clip0_15_2684">
<rect width="60" height="60" fill="white" transform="translate(0 0.399658)"/>
</clipPath>
</defs>
</svg>
