<svg width="65" height="64" viewBox="0 0 65 64" fill="none" xmlns="http://www.w3.org/2000/svg">
<g clip-path="url(#clip0_15_2564)">
<path d="M48.6406 0H16.6406C7.80407 0 0.640625 7.16344 0.640625 16V48C0.640625 56.8366 7.80407 64 16.6406 64H48.6406C57.4772 64 64.6406 56.8366 64.6406 48V16C64.6406 7.16344 57.4772 0 48.6406 0Z" fill="#FFBA07"/>
<path opacity="0.35" d="M41.3383 15.3765L16.3814 40.2989C15.8801 40.8002 15.5452 41.4436 15.4255 42.1417L14.4046 48.0639C14.1834 49.3445 15.2976 50.4587 16.5803 50.2354L22.4334 49.2166C23.1275 49.0949 23.7688 48.764 24.2681 48.2668L49.2636 23.3017L41.3383 15.3765Z" fill="white"/>
<path d="M37.7482 18.9585L16.3815 40.2989C15.8802 40.8002 15.5453 41.4435 15.4256 42.1417L15.0278 44.4472L20.1888 49.6083L22.4315 49.2186C23.1256 49.0968 23.7669 48.766 24.2661 48.2688L45.6775 26.8838L37.7482 18.9585Z" fill="white"/>
<path d="M48.9673 23.5978L49.2656 23.3015C51.4534 21.1137 51.4534 17.564 49.2656 15.3762C47.0778 13.1884 43.5281 13.1884 41.3403 15.3762L41.042 15.6725L48.9673 23.5978Z" fill="white"/>
<path opacity="0.6" d="M49.7164 40.4671L24.173 14.9237C22.588 13.3386 20.0185 13.3386 18.4335 14.9237L15.5638 17.7934C13.9787 19.3784 13.9787 21.9478 15.5638 23.5329L41.1073 49.0764C42.6924 50.6614 45.2616 50.6614 46.8467 49.0764L49.7164 46.2066C51.3015 44.6216 51.3015 42.0522 49.7164 40.4671Z" fill="white"/>
</g>
<defs>
<clipPath id="clip0_15_2564">
<rect width="64" height="64" fill="white" transform="translate(0.640625)"/>
</clipPath>
</defs>
</svg>
