<svg width="65" height="64" viewBox="0 0 65 64" fill="none" xmlns="http://www.w3.org/2000/svg">
<g clip-path="url(#clip0_15_2582)">
<path d="M48.5781 0H16.5781C7.74157 0 0.578125 7.16344 0.578125 16V48C0.578125 56.8366 7.74157 64 16.5781 64H48.5781C57.4147 64 64.5781 56.8366 64.5781 48V16C64.5781 7.16344 57.4147 0 48.5781 0Z" fill="#FF4363"/>
<path d="M21.8619 24.0771C19.2361 24.0771 17.1079 26.2053 17.1079 28.8311V35.1697C17.1079 37.7955 19.2361 39.9237 21.8619 39.9237H28.2005V24.0771H21.8619Z" fill="white"/>
<path opacity="0.54" d="M45.2609 16.3949C44.0724 15.902 42.7145 16.1746 41.8064 17.0826C39.8604 19.027 33.6233 24.0773 28.2006 24.0773C26.4512 24.0773 25.0312 25.4971 25.0312 27.2466V36.7545C25.0312 38.504 26.4512 39.9238 28.2006 39.9238C33.5884 39.9238 39.851 44.9757 41.8064 46.9185C42.4133 47.5254 43.2215 47.8471 44.0471 47.8471C44.4559 47.8471 44.8679 47.7679 45.2609 47.6063C46.4447 47.115 47.2164 45.9598 47.2164 44.6778V19.3233C47.2164 18.0413 46.4447 16.8861 45.2609 16.3949Z" fill="white"/>
<path d="M28.2009 33.5854H21.8623C21.8623 33.5854 23.447 45.1916 23.447 45.4705C23.447 46.7826 24.5118 47.8475 25.8239 47.8475C27.136 47.8475 28.2009 46.7826 28.2009 45.4705C28.2009 45.1916 28.2009 33.5854 28.2009 33.5854Z" fill="white"/>
<path d="M47.2168 27.5381V36.4645C49.0598 35.81 50.3861 34.0685 50.3861 32.0021C50.3861 29.9357 49.0598 28.1925 47.2168 27.5381Z" fill="white"/>
</g>
<defs>
<clipPath id="clip0_15_2582">
<rect width="64" height="64" fill="white" transform="translate(0.578125)"/>
</clipPath>
</defs>
</svg>
