<svg width="60" height="61" viewBox="0 0 60 61" fill="none" xmlns="http://www.w3.org/2000/svg">
<g clip-path="url(#clip0_15_2673)">
<path d="M44 0.399658H16C7.16344 0.399658 0 7.5631 0 16.3997V44.3997C0 53.2362 7.16344 60.3997 16 60.3997H44C52.8366 60.3997 60 53.2362 60 44.3997V16.3997C60 7.5631 52.8366 0.399658 44 0.399658Z" fill="#FF4363"/>
<path opacity="0.35" d="M47.7103 23.0744L32.3126 14.7832C30.8524 13.9971 29.0956 13.9971 27.6354 14.7832L12.2377 23.0744C11.2329 23.614 10.6981 24.554 10.5781 25.5377C10.6981 26.5215 11.2345 27.4615 12.2377 28.0011L27.6354 36.2923C29.0956 37.0784 30.8524 37.0784 32.3126 36.2923L47.7103 28.0011C48.4331 27.6122 49.4217 27.1584 49.4217 27.1584C49.4217 27.1584 49.4217 25.5377 49.3699 25.5377C49.25 24.554 48.7151 23.614 47.7103 23.0744Z" fill="white"/>
<path d="M42.9391 28.2102C42.9391 27.5733 42.5599 27.0223 42.0089 26.8716C40.3153 26.4064 36.3026 25.5378 29.974 25.5378C23.6454 25.5378 19.6327 26.4064 17.9391 26.8716C17.3881 27.0239 17.0088 27.5733 17.0088 28.2102L17.0218 39.3165C17.0234 40.4996 17.8824 41.5384 19.0881 41.7183C19.1384 41.7248 24.1802 42.5108 28.4165 46.0422C28.8687 46.4182 29.4213 46.6062 29.974 46.6062C30.5266 46.6062 31.0793 46.4182 31.5298 46.0422C35.7662 42.5108 40.808 41.7248 40.8501 41.7199C42.064 41.5465 42.9391 40.5061 42.9391 39.3165V28.2102Z" fill="white"/>
<path d="M47.8014 41.7442C46.9068 41.7442 46.1807 41.0182 46.1807 40.1236V27.1584C46.1807 26.2638 46.9068 25.5378 47.8014 25.5378C48.696 25.5378 49.422 26.2638 49.422 27.1584V40.1236C49.422 41.0182 48.696 41.7442 47.8014 41.7442Z" fill="white"/>
</g>
<defs>
<clipPath id="clip0_15_2673">
<rect width="60" height="60" fill="white" transform="translate(0 0.399658)"/>
</clipPath>
</defs>
</svg>
