<svg width="598" height="672" viewBox="0 0 598 672" fill="none" xmlns="http://www.w3.org/2000/svg">
<ellipse cx="299" cy="369.5" rx="299" ry="298.5" fill="#FF4363"/>
<path fill-rule="evenodd" clip-rule="evenodd" d="M451.67 641.917C451.464 646.061 451.684 650.187 451.409 654.336C451.125 658.555 450.859 662.665 451.061 666.932C453.279 667.152 456.4 666.968 458.713 666.966L481.764 666.918C483.123 666.918 488.382 666.723 489.287 667.109C490.491 667.621 491.646 670.674 487.487 670.699L103.074 671.565C99.3425 671.572 74.0504 672.049 72.7618 671.431C71.5278 670.84 70.4506 667.768 74.9004 667.857L98.1312 667.845L101.922 656.724C105.417 646.193 109.156 632.274 112.033 621.523C114.174 613.527 116.699 605.998 118.662 598.016C119.66 593.963 120.646 590.212 121.944 586.324C122.501 584.654 125.864 575.998 125.657 575.059C118.364 574.305 111.237 570.736 105.597 567.105C102.883 565.355 98.3289 561.634 96.8653 558.696C90.4952 545.909 89.2748 538.954 84.9318 525.529C80.7501 512.612 75.9253 506.348 73.3368 491.997C70.8801 478.377 71.1733 463.81 72.8028 449.967C74.3481 436.848 77.6548 424.926 80.4001 412.407C81.766 406.18 82.741 399.85 83.9 393.461C88.243 369.616 92.2951 341.787 99.972 319.315C102.456 312.044 104.94 305.073 108.083 298.08C108.776 296.533 109.483 294.983 110.162 293.456C112.715 287.724 117.864 279.572 122.471 275.63L126.094 272.549C131 268.841 140.82 262.59 146.509 260.457C150.286 259.039 154.104 257.794 158.051 256.633L181.293 249.081C184.752 248.281 191.161 245.118 194.582 243.317C195.968 242.585 197.488 241.635 198.786 241.04C193.241 229.053 194.516 216.075 199.54 203.96C201.813 198.487 204.983 193.979 209.085 191.83C210.224 191.23 211.606 190.8 212.615 190.046L209.674 182.339C207.931 177.418 203.72 162.888 202.352 157.569C200.87 151.807 199.734 145.857 198.911 139.699C198.49 136.56 198.152 133.356 197.952 130.073C197.743 126.608 197.304 123.568 196.929 120.201C195.195 104.574 196.422 87.2741 201.438 72.7011C203.97 65.3556 203.84 64.5899 207.172 56.9626C222.008 22.9613 245.211 2.7491 285.546 0.588373C353.888 -1.53373 370.622 79.949 367.754 126.417C366.69 143.689 361.888 162.613 354.906 177.861C353.366 181.226 355.043 186.699 356.861 189.839C359.929 195.14 362.604 204.274 362.29 211.126C362.208 212.91 361.186 218.524 360.647 220.035C359.997 221.857 359.97 221.777 362.961 224.908C363.561 225.538 363.813 225.763 364.306 226.319C365.147 227.274 365.981 228.241 366.824 229.121L371.712 234.865C374.301 238.07 382.219 246.829 383.671 249.906C386.437 249.953 390.596 248.529 391.552 249.519C392.077 250.246 391.898 250.798 392.127 251.7C392.293 253.888 392.207 252.741 395.593 253.552C409.234 256.822 425.753 262.106 436.937 269.92C439.337 271.597 444.857 275.889 447.184 277.997C447.793 278.549 447.955 278.876 448.639 279.395C449.025 279.715 449.116 279.842 449.477 280.231C449.677 280.442 449.634 280.437 449.873 280.628C450.3 280.971 450.054 280.824 450.432 280.946C450.752 281.678 454.641 285.745 455.668 287.038L456.254 287.649C456.477 287.842 456.381 287.769 456.625 287.942C456.743 288.528 458.297 290.234 458.761 290.841L465.399 300.163C468.081 304.264 471.222 310.526 473.949 315.25C478.167 322.561 483.78 334.285 487.255 341.737C491.707 351.287 495.534 361.609 499.618 371.533C502.67 378.949 506.145 386.449 508.827 394.04C509.368 395.572 510.952 400.843 511.545 401.797C512.324 405.175 515.745 415.12 517.129 420.021C518.015 423.17 518.804 426.169 519.499 429.486C519.772 430.788 520.954 438.943 521.249 439.338C521.04 441.387 522.299 448.985 522.615 451.562C522.988 454.593 524.099 460.754 523.981 463.458C524.383 465.389 524.456 468.016 524.656 470.004C524.874 472.187 525.069 474.312 525.292 476.459C526.41 487.322 526.172 499.575 525.067 510.485C524.867 512.46 524.797 515.188 524.401 517.097C524.601 519.369 523.538 526.649 523.167 529.266C522.892 531.179 521.054 539.674 521.206 540.579L519.783 545.975C519.354 547.754 518.911 549.567 518.488 551.378C516.699 558.996 515.299 565.099 512.888 572.567C510.252 580.733 508.393 582.887 500.034 586.51C495.305 588.562 479.442 593.499 474.724 594.699C473.651 594.969 470.29 595.487 469.549 595.796C468.07 595.976 466.747 596.403 465.286 596.694L452.729 598.714C452.786 601.838 452.991 604.878 452.948 608.034C452.829 616.581 452.334 626.071 451.979 634.623L451.67 641.917Z" fill="#3D60DE"/>
<path fill-rule="evenodd" clip-rule="evenodd" d="M444.762 279.938L446.159 280.992C451.341 285.604 460.547 297.578 463.831 303.115L471.476 316.745C478.978 330.559 486.133 345.082 491.835 360.021C495.439 369.463 500.266 380.592 504.266 390.134C507.075 396.839 512.67 414.65 514.695 422.055C518.808 437.093 520.897 461.361 522.54 478.031C523.199 484.72 523.36 491.75 522.972 498.53C522.588 505.257 522.013 511.608 521.458 518.206C521.186 521.475 520.872 524.704 520.436 527.894L518.927 536.868L516.245 548.347C516.065 549.092 515.656 551.487 515.195 552.08C515.288 553.302 513.179 561.202 512.722 562.933C511.775 566.548 510.741 570.024 509.666 573.483C508.077 578.59 507.813 578.826 503.85 581.264C501.08 582.968 497.991 584.302 494.516 585.529C489.744 587.217 478.837 590.621 473.924 591.923L462.615 594.186C458.618 594.699 454.85 595.605 450.895 596.053C442.705 596.978 434.621 597.639 426.553 598.741C418.758 599.804 411.49 601.91 403.736 603.133C399.827 603.746 395.859 604.501 391.923 604.88C387.721 605.285 383.505 605.503 379.301 605.841C375.121 606.18 370.94 606.532 366.71 606.859C364.704 607.014 362.54 607.132 360.506 607.336C358.549 607.532 356.152 607.995 354.336 608.036C354.847 600.704 354.954 602.313 354.32 594.651C353.5 584.734 352.179 579.56 350.216 570.14C348.745 563.074 347.127 556.578 344.816 549.753C342.146 541.865 337.496 533.456 333.432 526.467C330.778 521.905 330.801 524.206 333.323 519.317C336.225 513.682 333.682 514.852 338.855 513.218C341.6 512.351 345.077 511.385 348.204 511.23C355.656 510.865 358.399 514.164 365.81 516.561C375.696 519.762 376.358 518.974 385.819 519.526C395.63 520.098 397.532 520.575 407.536 519.083C410.234 518.678 415.067 518.006 417.324 517.224C419.849 516.349 423.067 514.207 424.135 512.596C425.317 510.819 427.292 507.143 427.66 504.492C430.93 503.674 433.287 503.653 436.273 500.511C437.907 498.791 437.662 498.952 440.782 498.696C442.846 498.525 445.046 498.566 447 499.002C455.745 500.952 464.622 507.348 471.767 512.662C474.36 514.589 476.624 516.188 479.019 518.212C479.574 518.678 480.162 519.199 480.744 519.639C482.235 520.771 488.996 527.353 490.521 528.978C491.128 529.625 491.723 530.104 492.775 529.523C494.412 527.957 490.428 524.733 488.946 523.263C488.392 522.713 488.06 522.466 487.496 521.952C484.973 519.646 483.067 517.733 480.233 515.427C474.828 511.03 462.602 502.288 457.05 499.598C454.893 498.55 451.527 497.216 449.061 496.548C445.368 495.544 442.414 495.846 438.58 496.187C438.814 494.633 439.028 493.717 438.826 492.041C438.332 487.935 436.551 489.335 439.894 486.199C444.434 481.935 442.275 472.867 438.014 470.752C438.794 469.272 439.819 468.273 439.916 465.633C440.125 460.059 436.06 456.033 430.433 454.32C425.172 452.72 419.447 451.473 414.158 449.889C412.502 449.392 410.372 448.667 408.811 448.31C408.847 448.272 408.902 448.163 408.92 448.197L410.122 447.377C413.331 445.561 415.863 443.301 419.001 441.083C421.542 439.293 426.294 435.464 428.04 432.781C429.058 431.218 430.58 429.262 431.146 427.221C431.964 424.286 430.728 422.211 429.01 421.066C424.531 418.081 419.54 420.75 415.367 422.273C415.556 417.679 416.488 412.192 417.006 407.55L427.16 318.821C427.433 316.504 429.11 305.185 428.365 303.901C427.619 303.51 421.101 303.967 419.433 303.783L420.083 285.531L420.038 283.7L396.57 283.055C395.877 278.638 395.236 274.226 394.598 269.675C393.987 265.301 393.168 260.62 392.748 256.233C397.066 256.404 403.87 258.714 407.87 259.996C417.038 262.936 426.31 266.064 434.171 271.517C436.517 273.144 441.98 277.206 444.159 279.247C444.243 279.326 444.393 279.467 444.473 279.558C444.723 279.833 444.548 279.583 444.762 279.938ZM310.663 179.897C309.713 180.042 307.82 180.21 306.411 180.21C301.852 180.21 298.138 179.233 293.686 178.692C290.405 178.297 288.239 178.547 285.628 179.903C282.587 181.483 281.078 180.36 277.446 180.331C271.703 180.276 266.74 183.577 261.017 182.65C259.306 182.371 258.004 181.898 259.483 183.773C261.454 186.086 264.233 189.198 267.167 192.104C280.382 205.191 293.243 204.714 305.193 189.93C308.274 186.118 310.581 182.169 310.663 179.897ZM251.636 117.495C249.409 118.21 247.57 120.691 248.25 123.684C248.786 126.053 251.222 128.321 254.44 127.244C260.536 125.204 258.02 115.436 251.636 117.495ZM315.513 116.418C312.924 115.9 310.477 116.87 309.404 119.844C308.672 123.945 311.617 126.71 314.831 126.608C319.956 126.444 322.446 117.799 315.513 116.418ZM273.094 166.787C278.198 164.588 281.56 173.062 286.689 167.964C290.08 164.59 289.971 165.728 293.995 166.998C295.536 167.487 297.366 167.359 298.557 166.632C299.497 166.06 299.863 165.521 300.175 164.892C300.472 164.294 300.945 163.22 301.031 162.284C301.191 160.516 299.232 159.628 298.448 161.345C298.004 162.313 297.809 163.772 296.938 164.229C294.873 165.31 291.841 161.736 287.923 163.297C285.85 164.122 285.016 166.101 283.839 166.498C281.223 167.389 277.794 161.861 272.626 163.949C270.619 164.758 269.151 165.955 267.762 163.676C267.019 162.456 267.044 161.154 266.701 160.387C266.219 159.319 264.454 159.26 264.365 161.293C264.292 162.89 265.14 164.66 265.924 165.712C267.96 168.468 270.426 167.932 273.094 166.787ZM319.565 97.5528C315.749 97.9754 312.74 98.4776 309.497 99.7567C298.125 104.239 302.715 108.67 305.511 106.416C309.508 103.19 313.433 101.947 319.122 101.309C322.844 100.888 327.11 101.12 330.617 101.817C332.285 102.149 333.923 102.604 335.407 103.149C336.798 103.662 339.523 104.767 339.582 102.195C339.641 99.6886 333.173 98.5207 331.164 98.1367C327.476 97.4301 323.378 97.1302 319.565 97.5528ZM266.803 109.642C268.619 109.924 269.403 108.068 268.456 106.65C266.56 103.819 260.063 101.274 257.052 100.313C251.02 98.3912 243.011 97.0712 236.068 97.8777C227.744 98.8479 230.219 102.333 231.764 102.547C232.403 102.633 235.423 101.715 236.63 101.561C241.543 100.929 248.138 101.82 252.818 103.001C259.436 104.673 264.454 108.995 266.803 109.642ZM313.667 112.335C325.217 110.604 334.969 118.317 336.33 127.803C339.737 151.505 299.925 156.994 296.304 133.21C294.714 122.793 302.945 113.941 313.667 112.335ZM248.207 109.945C259.558 108.622 269.015 116.013 271.119 124.663C273.674 135.171 265.478 143.946 254.836 145.209C243.511 146.552 234.025 139.095 231.95 130.552C229.187 119.171 238.461 111.078 248.207 109.945ZM266.394 113.439C265.572 112.717 264.569 111.999 263.54 111.36C257.465 107.586 248.975 106.686 242.311 109.215C239.191 110.397 234.198 113.537 232.982 116.25C231.73 116.279 230.198 115.968 228.962 115.8C226.464 115.459 226.655 115.77 225.962 114.468C223.478 109.792 218.633 101.799 217.996 97.0121C217.751 95.1672 219.715 92.3476 220.53 90.9934C223.835 85.5018 227.514 81.3576 232.219 77.2679C252.64 59.4982 284.916 57.0943 311.574 68.2706C324.087 73.5168 337.321 82.9912 345.564 93.9721C349.888 99.7272 349.959 98.6866 349.041 106.873C348.677 110.113 342.216 120.001 340.775 123.922L337.734 124.299C337.164 123.443 336.75 121.682 335.414 119.687C327.926 108.525 311.765 107.379 302.402 114.732C295.775 119.937 297.118 122.293 295.239 122.952C294.782 123.111 294.625 123.123 294.107 123.377C293.232 123.804 292.732 124.063 291.714 124.315C286.621 125.574 278.707 126.746 274.58 123.779C272.13 122.016 272.471 121.725 271.624 120.037C270.333 117.476 268.526 115.318 266.394 113.439ZM326.078 148.649C330.519 146.638 334.296 143.164 336.494 138.766C338.634 134.478 337.991 132.545 338.7 130.911C340.45 130.282 342.462 131.679 342.811 129.166C343.198 126.399 342.559 126.808 343.748 124.349C344.382 123.048 345.061 121.887 345.72 120.607L347.836 116.87C347.732 119.969 347.509 123.118 347.525 126.222C347.645 147.193 343.241 164.565 332.105 182.632C331.285 183.961 330.614 185.368 329.858 186.69C322.758 199.13 307.713 223.302 291.007 225.883C271.196 228.946 249.681 211.66 237.648 195.949C234.896 192.602 229.937 181.435 228.398 177.418C225.796 170.615 224.546 164.29 223.162 157.31C221.074 146.904 219.905 131.068 219.192 120.303C218.878 115.561 217.871 109.876 218.049 105.21C218.435 106.523 219.876 108.972 220.59 110.379C222.312 113.768 224.298 116.034 224.205 118.488C224.169 119.435 223.969 121.316 224.146 122.216C224.517 124.088 227.644 123.934 229.421 124.643C229.848 128.003 228.864 129.234 231.014 134.228C231.591 135.564 232.323 136.746 233.016 137.745C234.253 139.522 234.393 139.425 235.607 140.67C238.918 144.064 244.436 147.022 251.045 147.365C257.715 147.713 264.467 145.125 267.694 141.683C268.178 141.165 268.519 140.883 269.076 140.306C272.908 136.335 273.896 130.982 273.453 125.442C275.008 126.001 274.933 126.485 278.146 127.312C281.741 128.239 288.821 127.183 292.475 126.26C293.375 126.035 293.993 125.679 294.757 125.449C294.07 129.761 293.511 131.884 294.914 136.346C296.007 139.822 297.723 142.165 299.647 144.214C306.14 151.148 317.61 152.489 326.078 148.649ZM334.298 256.085L380.826 250.339C379.969 248.645 374.328 242.312 372.799 240.679C371.865 239.679 371.028 238.543 370.131 237.436L366.065 232.64C365.601 232.083 365.088 231.634 364.661 231.091L359.018 224.874C357.524 226.656 357.047 230.111 354.256 233.94C349.245 240.81 337.539 248.065 334.298 256.085ZM295.566 539.82C296.086 540.794 296.763 542.823 297.2 543.971L302.029 556.279C304.202 562.34 305.711 567.128 307.097 573.857C308.833 582.284 310.522 595.746 307.581 604.485C306.204 608.572 305.224 608.799 303.09 611.18C306.768 613.08 309.474 614.191 314.26 614.809C318.467 615.35 322.742 613.809 326.633 612.88C330.58 611.937 334.689 611.181 338.728 610.394C342.964 609.572 347.157 609.254 351.418 608.515C351.516 606.318 351.879 604.605 351.884 602.324C351.904 581.676 344.366 552.509 334.451 534.106L329.658 525.619C328.167 526.421 324.662 532.679 316.46 536.934C310.188 540.19 303.461 540.397 295.566 539.82ZM101.329 667.786C101.67 665.864 102.901 663.013 103.549 661.095C104.276 658.95 104.906 656.769 105.663 654.549C107.144 650.185 108.342 645.536 109.626 640.981C112.174 631.92 114.583 622.684 117.237 613.523C118.544 609.006 119.998 604.517 121.167 599.922C122.382 595.14 123.553 590.752 124.966 586.201C125.678 583.911 126.453 581.773 127.194 579.558C128.387 576 127.989 575.45 129.666 575.541C130.318 575.577 131.009 575.702 131.646 575.766C143.416 576.925 152.667 576.461 164.276 575.827C163.91 577.227 162.569 579.774 161.892 581.153C152.281 600.697 148.724 622.345 143.947 643.58C143.043 647.601 142.168 651.489 141.343 655.533C140.713 658.605 139.848 665.305 138.848 667.716L121.792 667.773C117.651 667.784 105.176 667.993 101.329 667.786ZM228.105 562.456C238.055 559.446 246.991 555.092 256.724 551.864L278.369 544.739C280.282 544.139 291.625 539.908 292.568 540.238C293.434 540.649 294.077 543.332 294.393 544.212C297.561 553.02 303.568 567.103 304.39 575.275C301.016 575.087 275.964 567.368 270.401 566.6C256.849 564.724 236.709 572.222 219.669 565.096C220.83 564.322 226.246 563.017 228.105 562.456ZM217.528 567.737C217.247 571.472 216.467 595.224 217.61 596.937C218.49 597.559 228.346 597.612 230.166 597.671L236.439 597.212H236.441L253.609 598.477C257.62 598.691 261.57 599.177 265.615 599.277C269.869 599.382 273.955 599.754 278.232 599.791C280.355 599.807 282.421 599.934 284.534 599.97C286.657 600.007 288.562 599.72 290.623 599.782C289.312 592.8 287.896 584.711 285.796 578.222C285.475 577.243 284.455 573.76 284.028 573.283C283.494 572.683 280.076 571.978 279.105 571.71C268.822 568.87 266.951 568.284 256.563 570.438C242.386 573.38 230.805 570.268 217.528 567.737ZM244.334 634.439C245.679 645.634 247.934 656.194 249.216 667.387C250.211 667.641 278.537 667.568 281.257 667.389C281.471 665.948 280.612 658.357 280.351 656.558C279.926 653.622 273.228 607.597 271.233 602.433C260.376 601.645 249.613 601.07 238.668 601.02C239.482 610.981 243.023 623.504 244.334 634.439ZM281.514 644.968C282.069 648.658 282.641 652.236 283.185 655.899C283.725 659.575 283.969 663.688 284.264 667.384L448.116 667.014C448.264 665.628 447.993 663.908 448.057 662.395C448.266 657.462 448.718 652.886 448.689 647.826C448.671 644.693 449.032 638.036 449.22 633.294L449.223 633.394L449.22 633.278L449.218 633.165L449.216 633.049L449.214 632.933L449.211 632.817H449.209V632.699H449.207L449.205 632.581V632.463L449.202 632.345L449.2 632.226V632.108L449.198 631.988V631.87L449.195 631.749V631.631V631.513V631.393V631.275V631.156V631.038L449.198 630.92V630.804L449.2 630.686V630.57L449.202 630.454L449.205 630.338L449.207 630.223L449.209 630.109H449.211L449.214 630L449.216 629.891L449.22 629.782L449.223 629.673L449.227 629.566L449.232 629.459L449.236 629.355L449.241 629.25L449.245 629.15L449.252 629.052L449.257 628.955L449.264 628.857L449.27 628.764L449.277 628.668L449.284 628.58L449.291 628.489L449.3 628.403L449.307 628.319C449.782 624.345 450.484 602.831 450.1 599.107C448.552 598.9 443.184 599.686 441.316 599.925C430.983 601.254 426.771 601.333 415.62 603.76C396.573 607.902 382.271 608.554 362.952 610.024C353.622 610.735 338.089 613.221 328.883 615.318C319.956 617.351 313.863 619.296 305.095 615.643C302.729 614.657 301.709 613.877 299.1 612.778C296.898 611.848 294.275 607.632 293.098 605.373C292.645 604.51 292.332 603.149 291.484 602.638C290.534 602.351 284.905 602.862 283.157 602.808C280.266 602.717 277.344 602.628 274.474 602.608C274.714 603.994 281.389 644.139 281.514 644.968ZM449.993 644.968L449.977 644.886H449.98L449.993 644.968ZM450.634 640.258C450.634 640.261 450.634 640.261 450.632 640.261L450.634 640.258ZM103.892 316.74C97.5994 333.538 92.7269 359.121 89.8066 377.1C88.4135 385.668 86.6613 393.795 85.3068 402.329C83.8705 411.376 82.0797 418.235 80.0638 426.878C78.1026 435.292 76.4299 443.076 75.4981 452.014C73.6278 469.949 73.8709 489.489 79.9525 505.089C83.0364 512.991 85.4477 517.719 88.2748 526.519C89.4862 530.288 90.6452 533.978 91.8179 537.745C93.611 543.516 96.8904 554.411 100.249 559.048C102.945 562.772 113.619 568.707 118.539 570.508C122.555 571.978 126.691 572.296 131.216 572.805C149.456 574.859 168.812 572.894 186.493 570.084C192.02 569.204 205.777 566.301 210.954 564.815C221.074 561.909 232.203 558.38 242.1 554.579L258.583 548.008C261.479 546.849 271.726 544.443 273.733 543.035L269.49 537.114C269.417 536.607 266.499 531.118 265.913 529.941C262.438 522.997 259.833 513.341 258.329 505.614C256.095 494.129 256.568 477.513 258.688 466.044C255.063 467.782 252.477 469.859 247.557 470.652C243.161 471.358 237.121 470.479 232.73 469.943C218.428 468.195 216.301 471.629 205.815 473.601C202.956 474.139 201.906 473.46 199.579 472.56C194.127 470.454 188.13 467.423 181.494 467.103C176.532 466.864 166.858 469.697 161.726 471.076C160.217 471.481 156.704 472.21 155.758 472.621C153.833 472.928 148.693 474.971 147.752 473.121C147.061 471.663 148.19 471.249 149.511 470.988C154.392 470.022 159.21 468.788 164.015 467.446C168.224 466.271 171.573 465.596 176.073 464.744C176.285 451.759 171.883 416.177 168.315 403.351C166.596 397.166 165.012 390.194 164.881 383.684C164.701 374.569 165.442 363.667 166.869 354.906C169.446 339.09 178.896 323.127 186.323 312.678C192.438 304.076 198.943 296.608 204.302 288.299C205.111 287.04 205.186 287.365 204.981 285.574C204.895 284.825 203.554 272.855 203.704 272.047L208.595 271.22C207.629 263.686 207.411 263.279 205.274 256.295C203.681 251.094 202.811 248.288 200.204 243.482C199.04 243.903 197.345 245.091 196.043 245.773C183.503 252.321 176.869 253.359 163.762 257.815C157.531 259.934 150.59 261.675 144.788 264.26C137.152 267.662 130.273 272.944 123.957 278.299C122.764 279.313 120.108 281.901 119.401 283.618C119.049 283.732 118.855 284.204 118.528 284.686C114.201 291.041 113.587 292.954 110.401 300.004C107.849 305.644 106.072 310.937 103.892 316.74ZM320.333 525.442C318.597 526.842 314.104 531.288 312.299 528.475C310.295 525.347 308.745 519.224 307.461 515.577C305.563 510.19 304.029 502.219 303.293 496.087C302.45 489.085 303.634 481.555 306.018 475.677C307.149 472.887 308.34 470.134 309.586 467.421C312.358 461.386 314.442 462.402 315.435 461.904C306.829 455.96 295.452 458.114 285.464 459.094C283.916 459.244 282.362 459.221 280.789 459.357C276.862 459.698 266.383 460.686 263.494 462.127C261.604 463.067 261.122 467.48 260.82 469.534C259.77 476.675 259.542 491.641 260.172 498.496C261.076 508.336 264.89 521.112 269.044 529.759C270.883 533.583 273.883 539.12 276.848 542.133C278.837 541.801 288.105 538.154 292.018 537.123C293.898 536.627 296.175 536.968 298.132 537.093C311.692 537.948 328.176 529.866 331.732 515.656C329.36 516.161 328.91 517.445 327.596 518.726C325.694 520.582 322.351 523.815 320.333 525.442ZM410.579 443.696C414.792 440.476 422.894 435.207 425.724 431.061C427.294 428.759 430.18 425.417 427.66 423.391C423.669 420.176 415.617 425.517 413.108 426.924C403.947 432.065 400.184 432.917 391.034 436.568C376.492 442.371 378.935 439.377 363.563 448.501C362.779 448.967 361.961 449.521 361.054 449.924C354.179 452.973 349.318 456.11 344.505 457.817C336.375 460.7 328.973 461.42 316.529 464.703C315.017 465.101 314.676 464.908 313.797 465.907C311.688 468.298 308.658 476.45 307.679 479.688C304.752 489.328 305.924 497.38 308.147 507.011C308.502 508.545 311.438 518.242 311.922 519.005C317.022 517.849 321.224 516.595 325.844 514.795C330.342 513.046 334.455 511.542 339.243 510.067C354.677 505.312 356.47 510.828 367.817 514.132C377.617 516.988 382.307 516.433 392.123 517.017C400.552 517.519 408.072 516.445 416.431 514.532C420.899 513.507 424.188 508.352 424.592 504.835C422.551 503.905 416.274 504.648 416.458 502.063C416.683 499.007 429.967 504.546 434.83 497.689C436.601 495.192 436.403 491.629 435.11 488.86C432.669 488.823 430.242 488.683 427.774 488.751C426.56 488.787 425.056 489.037 424.769 487.842C424.433 486.447 425.49 486.117 426.592 486.013C429.094 485.879 431.48 486.14 433.885 486.186C435.61 486.22 437.969 484.234 438.657 483.193C440.428 480.517 439.523 475.807 437.589 473.676C435.694 471.585 432.739 471.613 430.14 471.606C429.019 471.601 427.806 471.747 426.915 471.551C425.433 471.231 424.974 469.52 426.544 468.848C427.046 468.634 427.44 468.779 428.676 468.852C429.878 468.925 431.085 468.868 432.285 468.959C437.976 469.402 438.21 464.697 435.826 461.302C433.033 457.324 427.781 456.354 422.978 455.252C419.595 454.477 416.401 453.486 413.145 452.468L406.006 450.142C404.407 449.751 402.618 448.694 404.759 446.999C405.77 446.216 407.711 445.627 410.579 443.696ZM402.095 358.223C402.523 357.465 402.832 337.405 402.798 334.794L368.274 334.185L221.428 331.659C221.158 334.467 221.119 361.77 221.062 365.558C220.899 376.791 220.821 388.006 220.737 399.239C220.651 410.422 220.43 421.721 220.376 432.922C220.342 439.749 219.749 461.902 220.176 466.798C221.633 467.021 225.726 466.648 227.594 466.685C233.732 466.81 243.091 468.957 247.918 467.405C256.924 464.506 257.97 461.582 262.274 459.514C267.367 457.062 288.109 455.974 294.823 455.261C299.961 454.713 303.561 454.759 308.368 455.972C310.902 456.61 317.104 458.821 317.976 461.211C320.91 460.804 339.607 456.597 341.359 456.038C349.329 453.488 349.627 453.382 356.145 449.553C364.442 444.673 369.79 440.731 379.587 437.534C384.205 436.025 396.227 431.734 400.364 429.932C400.666 424.034 400.698 417.935 400.868 412.046C401.298 397.148 401.441 381.935 401.982 367.132C402.057 365.19 402.402 359.78 402.095 358.223ZM416.397 386.04L416.401 387.199C416.949 384.475 418.281 371.065 418.735 367.148L423.349 326.846C423.751 323.452 424.101 320.146 424.503 316.747C424.781 314.389 425.69 308.847 425.524 306.755C423.853 306.718 421.708 306.646 420.072 306.721C418.729 306.786 419.267 307.813 419.129 311.199L417.163 364.578C416.917 371.594 416.374 379.029 416.397 386.04ZM207.376 274.828L217.467 362.136C218.051 352.509 218.419 344.982 218.474 334.826C218.485 332.183 218.015 330.729 219.612 329.207C220.571 328.291 224.069 328.819 225.626 328.837C227.614 328.857 230.364 329.037 232.264 328.864L233.225 278.611C234.498 278.343 250.447 278.865 253.036 278.954C293.073 280.312 333.153 281.169 373.194 282.394C379.923 282.6 386.848 282.923 393.58 282.941C393.287 280.358 392.671 277.849 392.355 275.298C392.064 272.967 391.734 270.122 391.393 267.616C390.707 262.543 389.789 257.392 389.275 252.339C387.944 252.137 346.357 257.542 343.859 257.846L218.721 273.383C215.131 273.828 210.865 274.144 207.376 274.828Z" fill="white"/>
</svg>
